<svg id="visual" viewBox="0 0 960 540" width="960" height="540" xmlns="http://www.w3.org/2000/svg" xmlns:xlink="http://www.w3.org/1999/xlink" version="1.1"><rect x="0" y="0" width="960" height="540" fill="#2f3438"></rect><defs><linearGradient id="grad1_0" x1="43.8%" y1="0%" x2="100%" y2="100%"><stop offset="14.444444444444446%" stop-color="#2f3438" stop-opacity="1"></stop><stop offset="85.55555555555554%" stop-color="#2f3438" stop-opacity="1"></stop></linearGradient></defs><defs><linearGradient id="grad2_0" x1="0%" y1="0%" x2="56.3%" y2="100%"><stop offset="14.444444444444446%" stop-color="#2f3438" stop-opacity="1"></stop><stop offset="85.55555555555554%" stop-color="#2f3438" stop-opacity="1"></stop></linearGradient></defs><g transform="translate(960, 0)"><path d="M0 189C-33.2 184.2 -66.5 179.3 -94.5 163.7C-122.5 148 -145.3 121.6 -160.2 92.5C-175.1 63.4 -182 31.7 -189 0L0 0Z" fill="#616173"></path></g><g transform="translate(0, 540)"><path d="M0 -189C25.8 -171.9 51.7 -154.8 81.5 -141.2C111.3 -127.6 145.1 -117.4 163.7 -94.5C182.3 -71.6 185.6 -35.8 189 0L0 0Z" fill="#616173"></path></g></svg>