<svg id="visual" viewBox="0 0 960 540" width="960" height="540" xmlns="http://www.w3.org/2000/svg" xmlns:xlink="http://www.w3.org/1999/xlink" version="1.1"><rect width="960" height="540" fill="#6b6a6a"></rect><g><g transform="translate(755 107)"><path d="M0 -26.1L11.3 -23.6L20.4 -16.3L25.5 -5.8L25.5 5.8L20.4 16.3L11.3 23.6L0 26.1L-11.3 23.6L-20.4 16.3L-25.5 5.8L-25.5 -5.8L-20.4 -16.3L-11.3 -23.6Z" fill="#5d5b5b"></path></g><g transform="translate(899 469)"><path d="M0 -4L1.7 -3.6L3.1 -2.5L3.9 -0.9L3.9 0.9L3.1 2.5L1.7 3.6L0 4L-1.7 3.6L-3.1 2.5L-3.9 0.9L-3.9 -0.9L-3.1 -2.5L-1.7 -3.6Z" fill="#5d5b5b"></path></g><g transform="translate(514 147)"><path d="M0 -8L3.5 -7.2L6.3 -5L7.8 -1.8L7.8 1.8L6.3 5L3.5 7.2L0 8L-3.5 7.2L-6.3 5L-7.8 1.8L-7.8 -1.8L-6.3 -5L-3.5 -7.2Z" fill="#5d5b5b"></path></g><g transform="translate(341 141)"><path d="M0 -23L10 -20.7L18 -14.3L22.4 -5.1L22.4 5.1L18 14.3L10 20.7L0 23L-10 20.7L-18 14.3L-22.4 5.1L-22.4 -5.1L-18 -14.3L-10 -20.7Z" fill="#5d5b5b"></path></g><g transform="translate(239 77)"><path d="M0 -6L2.6 -5.4L4.7 -3.7L5.8 -1.3L5.8 1.3L4.7 3.7L2.6 5.4L0 6L-2.6 5.4L-4.7 3.7L-5.8 1.3L-5.8 -1.3L-4.7 -3.7L-2.6 -5.4Z" fill="#5d5b5b"></path></g><g transform="translate(859 58)"><path d="M0 -25L10.8 -22.5L19.5 -15.6L24.4 -5.6L24.4 5.6L19.5 15.6L10.8 22.5L0 25L-10.8 22.5L-19.5 15.6L-24.4 5.6L-24.4 -5.6L-19.5 -15.6L-10.8 -22.5Z" fill="#5d5b5b"></path></g><g transform="translate(195 505)"><path d="M0 -21L9.1 -18.9L16.4 -13.1L20.5 -4.7L20.5 4.7L16.4 13.1L9.1 18.9L0 21L-9.1 18.9L-16.4 13.1L-20.5 4.7L-20.5 -4.7L-16.4 -13.1L-9.1 -18.9Z" fill="#5d5b5b"></path></g><g transform="translate(101 174)"><path d="M0 -13L5.6 -11.7L10.2 -8.1L12.7 -2.9L12.7 2.9L10.2 8.1L5.6 11.7L0 13L-5.6 11.7L-10.2 8.1L-12.7 2.9L-12.7 -2.9L-10.2 -8.1L-5.6 -11.7Z" fill="#5d5b5b"></path></g><g transform="translate(210 353)"><path d="M0 -6L2.6 -5.4L4.7 -3.7L5.8 -1.3L5.8 1.3L4.7 3.7L2.6 5.4L0 6L-2.6 5.4L-4.7 3.7L-5.8 1.3L-5.8 -1.3L-4.7 -3.7L-2.6 -5.4Z" fill="#5d5b5b"></path></g><g transform="translate(833 473)"><path d="M0 -9L3.9 -8.1L7 -5.6L8.8 -2L8.8 2L7 5.6L3.9 8.1L0 9L-3.9 8.1L-7 5.6L-8.8 2L-8.8 -2L-7 -5.6L-3.9 -8.1Z" fill="#5d5b5b"></path></g><g transform="translate(27 368)"><path d="M0 -17L7.4 -15.3L13.3 -10.6L16.6 -3.8L16.6 3.8L13.3 10.6L7.4 15.3L0 17L-7.4 15.3L-13.3 10.6L-16.6 3.8L-16.6 -3.8L-13.3 -10.6L-7.4 -15.3Z" fill="#5d5b5b"></path></g><g transform="translate(447 430)"><path d="M0 -8L3.5 -7.2L6.3 -5L7.8 -1.8L7.8 1.8L6.3 5L3.5 7.2L0 8L-3.5 7.2L-6.3 5L-7.8 1.8L-7.8 -1.8L-6.3 -5L-3.5 -7.2Z" fill="#5d5b5b"></path></g><g transform="translate(639 263)"><path d="M0 -12L5.2 -10.8L9.4 -7.5L11.7 -2.7L11.7 2.7L9.4 7.5L5.2 10.8L0 12L-5.2 10.8L-9.4 7.5L-11.7 2.7L-11.7 -2.7L-9.4 -7.5L-5.2 -10.8Z" fill="#5d5b5b"></path></g><g transform="translate(665 60)"><path d="M0 -21L9.1 -18.9L16.4 -13.1L20.5 -4.7L20.5 4.7L16.4 13.1L9.1 18.9L0 21L-9.1 18.9L-16.4 13.1L-20.5 4.7L-20.5 -4.7L-16.4 -13.1L-9.1 -18.9Z" fill="#5d5b5b"></path></g><g transform="translate(547 469)"><path d="M0 -22L9.5 -19.8L17.2 -13.7L21.4 -4.9L21.4 4.9L17.2 13.7L9.5 19.8L0 22L-9.5 19.8L-17.2 13.7L-21.4 4.9L-21.4 -4.9L-17.2 -13.7L-9.5 -19.8Z" fill="#5d5b5b"></path></g><g transform="translate(884 394)"><path d="M0 -5L2.2 -4.5L3.9 -3.1L4.9 -1.1L4.9 1.1L3.9 3.1L2.2 4.5L0 5L-2.2 4.5L-3.9 3.1L-4.9 1.1L-4.9 -1.1L-3.9 -3.1L-2.2 -4.5Z" fill="#5d5b5b"></path></g><g transform="translate(677 527)"><path d="M0 -23L10 -20.7L18 -14.3L22.4 -5.1L22.4 5.1L18 14.3L10 20.7L0 23L-10 20.7L-18 14.3L-22.4 5.1L-22.4 -5.1L-18 -14.3L-10 -20.7Z" fill="#5d5b5b"></path></g><g transform="translate(83 356)"><path d="M0 -5L2.2 -4.5L3.9 -3.1L4.9 -1.1L4.9 1.1L3.9 3.1L2.2 4.5L0 5L-2.2 4.5L-3.9 3.1L-4.9 1.1L-4.9 -1.1L-3.9 -3.1L-2.2 -4.5Z" fill="#5d5b5b"></path></g><g transform="translate(392 348)"><path d="M0 -8L3.5 -7.2L6.3 -5L7.8 -1.8L7.8 1.8L6.3 5L3.5 7.2L0 8L-3.5 7.2L-6.3 5L-7.8 1.8L-7.8 -1.8L-6.3 -5L-3.5 -7.2Z" fill="#5d5b5b"></path></g><g transform="translate(443 168)"><path d="M0 -14L6.1 -12.6L10.9 -8.7L13.6 -3.1L13.6 3.1L10.9 8.7L6.1 12.6L0 14L-6.1 12.6L-10.9 8.7L-13.6 3.1L-13.6 -3.1L-10.9 -8.7L-6.1 -12.6Z" fill="#5d5b5b"></path></g><g transform="translate(309 475)"><path d="M0 -21L9.1 -18.9L16.4 -13.1L20.5 -4.7L20.5 4.7L16.4 13.1L9.1 18.9L0 21L-9.1 18.9L-16.4 13.1L-20.5 4.7L-20.5 -4.7L-16.4 -13.1L-9.1 -18.9Z" fill="#5d5b5b"></path></g><g transform="translate(577 307)"><path d="M0 -24L10.4 -21.6L18.8 -15L23.4 -5.3L23.4 5.3L18.8 15L10.4 21.6L0 24L-10.4 21.6L-18.8 15L-23.4 5.3L-23.4 -5.3L-18.8 -15L-10.4 -21.6Z" fill="#5d5b5b"></path></g><g transform="translate(225 136)"><path d="M0 -25L10.8 -22.5L19.5 -15.6L24.4 -5.6L24.4 5.6L19.5 15.6L10.8 22.5L0 25L-10.8 22.5L-19.5 15.6L-24.4 5.6L-24.4 -5.6L-19.5 -15.6L-10.8 -22.5Z" fill="#5d5b5b"></path></g><g transform="translate(620 503)"><path d="M0 -23L10 -20.7L18 -14.3L22.4 -5.1L22.4 5.1L18 14.3L10 20.7L0 23L-10 20.7L-18 14.3L-22.4 5.1L-22.4 -5.1L-18 -14.3L-10 -20.7Z" fill="#5d5b5b"></path></g><g transform="translate(515 236)"><path d="M0 -7L3 -6.3L5.5 -4.4L6.8 -1.6L6.8 1.6L5.5 4.4L3 6.3L0 7L-3 6.3L-5.5 4.4L-6.8 1.6L-6.8 -1.6L-5.5 -4.4L-3 -6.3Z" fill="#5d5b5b"></path></g><g transform="translate(32 46)"><path d="M0 -19L8.2 -17.1L14.9 -11.8L18.5 -4.2L18.5 4.2L14.9 11.8L8.2 17.1L0 19L-8.2 17.1L-14.9 11.8L-18.5 4.2L-18.5 -4.2L-14.9 -11.8L-8.2 -17.1Z" fill="#5d5b5b"></path></g><g transform="translate(165 19)"><path d="M0 -19L8.2 -17.1L14.9 -11.8L18.5 -4.2L18.5 4.2L14.9 11.8L8.2 17.1L0 19L-8.2 17.1L-14.9 11.8L-18.5 4.2L-18.5 -4.2L-14.9 -11.8L-8.2 -17.1Z" fill="#5d5b5b"></path></g><g transform="translate(812 422)"><path d="M0 -15L6.5 -13.5L11.7 -9.4L14.6 -3.3L14.6 3.3L11.7 9.4L6.5 13.5L0 15L-6.5 13.5L-11.7 9.4L-14.6 3.3L-14.6 -3.3L-11.7 -9.4L-6.5 -13.5Z" fill="#5d5b5b"></path></g><g transform="translate(888 187)"><path d="M0 -10L4.3 -9L7.8 -6.2L9.7 -2.2L9.7 2.2L7.8 6.2L4.3 9L0 10L-4.3 9L-7.8 6.2L-9.7 2.2L-9.7 -2.2L-7.8 -6.2L-4.3 -9Z" fill="#5d5b5b"></path></g><g transform="translate(442 63)"><path d="M0 -8L3.5 -7.2L6.3 -5L7.8 -1.8L7.8 1.8L6.3 5L3.5 7.2L0 8L-3.5 7.2L-6.3 5L-7.8 1.8L-7.8 -1.8L-6.3 -5L-3.5 -7.2Z" fill="#5d5b5b"></path></g><g transform="translate(511 4)"><path d="M0 -12L5.2 -10.8L9.4 -7.5L11.7 -2.7L11.7 2.7L9.4 7.5L5.2 10.8L0 12L-5.2 10.8L-9.4 7.5L-11.7 2.7L-11.7 -2.7L-9.4 -7.5L-5.2 -10.8Z" fill="#5d5b5b"></path></g><g transform="translate(291 315)"><path d="M0 -16L6.9 -14.4L12.5 -10L15.6 -3.6L15.6 3.6L12.5 10L6.9 14.4L0 16L-6.9 14.4L-12.5 10L-15.6 3.6L-15.6 -3.6L-12.5 -10L-6.9 -14.4Z" fill="#5d5b5b"></path></g><g transform="translate(410 510)"><path d="M0 -21L9.1 -18.9L16.4 -13.1L20.5 -4.7L20.5 4.7L16.4 13.1L9.1 18.9L0 21L-9.1 18.9L-16.4 13.1L-20.5 4.7L-20.5 -4.7L-16.4 -13.1L-9.1 -18.9Z" fill="#5d5b5b"></path></g><g transform="translate(295 402)"><path d="M0 -8L3.5 -7.2L6.3 -5L7.8 -1.8L7.8 1.8L6.3 5L3.5 7.2L0 8L-3.5 7.2L-6.3 5L-7.8 1.8L-7.8 -1.8L-6.3 -5L-3.5 -7.2Z" fill="#5d5b5b"></path></g><g transform="translate(899 118)"><path d="M0 -17L7.4 -15.3L13.3 -10.6L16.6 -3.8L16.6 3.8L13.3 10.6L7.4 15.3L0 17L-7.4 15.3L-13.3 10.6L-16.6 3.8L-16.6 -3.8L-13.3 -10.6L-7.4 -15.3Z" fill="#5d5b5b"></path></g><g transform="translate(580 151)"><path d="M0 -12L5.2 -10.8L9.4 -7.5L11.7 -2.7L11.7 2.7L9.4 7.5L5.2 10.8L0 12L-5.2 10.8L-9.4 7.5L-11.7 2.7L-11.7 -2.7L-9.4 -7.5L-5.2 -10.8Z" fill="#5d5b5b"></path></g><g transform="translate(162 299)"><path d="M0 -24L10.4 -21.6L18.8 -15L23.4 -5.3L23.4 5.3L18.8 15L10.4 21.6L0 24L-10.4 21.6L-18.8 15L-23.4 5.3L-23.4 -5.3L-18.8 -15L-10.4 -21.6Z" fill="#5d5b5b"></path></g><g transform="translate(700 475)"><path d="M0 -23L10 -20.7L18 -14.3L22.4 -5.1L22.4 5.1L18 14.3L10 20.7L0 23L-10 20.7L-18 14.3L-22.4 5.1L-22.4 -5.1L-18 -14.3L-10 -20.7Z" fill="#5d5b5b"></path></g><g transform="translate(59 456)"><path d="M0 -8L3.5 -7.2L6.3 -5L7.8 -1.8L7.8 1.8L6.3 5L3.5 7.2L0 8L-3.5 7.2L-6.3 5L-7.8 1.8L-7.8 -1.8L-6.3 -5L-3.5 -7.2Z" fill="#5d5b5b"></path></g><g transform="translate(153 133)"><path d="M0 -23L10 -20.7L18 -14.3L22.4 -5.1L22.4 5.1L18 14.3L10 20.7L0 23L-10 20.7L-18 14.3L-22.4 5.1L-22.4 -5.1L-18 -14.3L-10 -20.7Z" fill="#5d5b5b"></path></g><g transform="translate(868 343)"><path d="M0 -4L1.7 -3.6L3.1 -2.5L3.9 -0.9L3.9 0.9L3.1 2.5L1.7 3.6L0 4L-1.7 3.6L-3.1 2.5L-3.9 0.9L-3.9 -0.9L-3.1 -2.5L-1.7 -3.6Z" fill="#5d5b5b"></path></g><g transform="translate(495 67)"><path d="M0 -22L9.5 -19.8L17.2 -13.7L21.4 -4.9L21.4 4.9L17.2 13.7L9.5 19.8L0 22L-9.5 19.8L-17.2 13.7L-21.4 4.9L-21.4 -4.9L-17.2 -13.7L-9.5 -19.8Z" fill="#5d5b5b"></path></g></g></svg>