<svg id="visual" viewBox="0 0 960 540" width="960" height="540" xmlns="http://www.w3.org/2000/svg" xmlns:xlink="http://www.w3.org/1999/xlink" version="1.1"><rect x="0" y="0" width="960" height="540" fill="#353232"></rect><path d="M0 305L40 302.3C80 299.7 160 294.3 240 326.8C320 359.3 400 429.7 480 463.3C560 497 640 494 720 482.2C800 470.3 880 449.7 920 439.3L960 429L960 541L920 541C880 541 800 541 720 541C640 541 560 541 480 541C400 541 320 541 240 541C160 541 80 541 40 541L0 541Z" fill="#616173" stroke-linecap="round" stroke-linejoin="miter"></path></svg>