<svg id="visual" viewBox="0 0 960 540" width="960" height="540" xmlns="http://www.w3.org/2000/svg" xmlns:xlink="http://www.w3.org/1999/xlink" version="1.1"><rect x="0" y="0" width="960" height="540" fill="#2a2a2a"></rect><path d="M0 461L22.8 458.7C45.7 456.3 91.3 451.7 137 434.3C182.7 417 228.3 387 274 388.5C319.7 390 365.3 423 411.2 428C457 433 503 410 548.8 402.3C594.7 394.7 640.3 402.3 686 412.3C731.7 422.3 777.3 434.7 823 425C868.7 415.3 914.3 383.7 937.2 367.8L960 352L960 541L937.2 541C914.3 541 868.7 541 823 541C777.3 541 731.7 541 686 541C640.3 541 594.7 541 548.8 541C503 541 457 541 411.2 541C365.3 541 319.7 541 274 541C228.3 541 182.7 541 137 541C91.3 541 45.7 541 22.8 541L0 541Z" fill="#7b7bdf" stroke-linecap="round" stroke-linejoin="miter"></path></svg>